<?xml version="1.0" encoding="utf-8"?>
<!-- Generator: Adobe Illustrator 26.5.0, SVG Export Plug-In . SVG Version: 6.00 Build 0)  -->
<svg version="1.1" id="Capa_1" xmlns="http://www.w3.org/2000/svg" xmlns:xlink="http://www.w3.org/1999/xlink" x="0px" y="0px"
	 viewBox="0 0 5002.33 2835.1" style="enable-background:new 0 0 5002.33 2835.1;" xml:space="preserve">
<style type="text/css">
	.st0{fill:#1B2D54;}
	.st1{fill:#008C8F;}
	.st2{fill:#00A5B8;}
	.st3{fill:#5CC1D1;}
	.st4{fill:#90D2E4;}
</style>
<g>
	<g>
		<polygon class="st0" points="542.88,1764.57 636.04,1764.57 385.94,2382.24 135.91,1764.57 229,1764.57 385.94,2150.6 		"/>
		<rect x="768.63" y="1763.72" class="st0" width="89.79" height="615.11"/>
		<polygon class="st0" points="991,1763.75 1383.76,1763.75 1383.76,1850.17 1231.87,1850.17 1231.87,2378.05 1142.89,2378.05 
			1142.89,1850.17 991,1850.17 		"/>
		<path class="st0" d="M1516.33,2378.06l250.91-615.18l250.91,615.18h-91.4l-18.46-48.7h-281.15l-19.33,48.7H1516.33z
			 M1657.31,2250.48h219.92l-109.99-281.96L1657.31,2250.48z"/>
		<polygon class="st0" points="2240.57,2291.59 2491.47,2291.59 2491.47,2379.69 2150.78,2379.69 2150.78,1763.78 2240.57,1763.78 
					"/>
		<path class="st0" d="M2927.86,2294.12c35.77,0,68.7-8.49,98.61-25.6c29.91-17.04,54.36-39.88,73.42-68.44l73.01,54.63
			c-27.95,37.99-63.11,68.23-105.35,90.6c-42.23,22.36-88.78,33.54-139.7,33.54c-41.96,0-81.37-8.08-118.35-24.32
			c-36.91-16.23-69.11-38.19-96.46-65.88c-27.48-27.68-49.1-60.15-65.07-97.33c-15.96-37.25-23.91-77.06-23.91-119.63
			c0-42.5,7.95-82.31,23.91-119.56c15.96-37.18,37.59-69.65,65.07-97.33c27.35-27.75,59.54-49.64,96.46-65.88
			c36.98-16.23,76.38-24.38,118.35-24.38c50.92,0,97.47,11.25,139.7,33.61c42.23,22.36,77.39,52.54,105.35,90.6l-73.01,54.56
			c-19.06-28.49-43.51-51.33-73.42-68.37c-29.91-17.11-62.85-25.6-98.61-25.6c-29.1,0-56.38,5.86-81.84,17.58
			c-25.46,11.79-47.69,27.68-66.68,47.89c-19.06,20.07-34.15,43.65-45.33,70.46c-11.18,26.88-16.77,55.7-16.77,86.42
			c0,30.78,5.59,59.61,16.77,86.42c11.18,26.88,26.27,50.38,45.33,70.52c19,20.14,41.22,36.1,66.68,47.82
			C2871.48,2288.26,2898.76,2294.12,2927.86,2294.12"/>
		<path class="st0" d="M3305.47,2378.06l250.91-615.18l250.91,615.18h-91.4l-18.46-48.7h-281.15l-19.33,48.7H3305.47z
			 M3446.45,2250.48h219.92l-109.99-281.96L3446.45,2250.48z"/>
		<path class="st0" d="M4362.86,2042.34c-7.81,25.19-19.47,47.82-34.82,67.96c-15.36,20.14-34.29,37.25-56.65,51.19
			c-1.15,1.15-2.49,2.02-4.17,2.56c-1.69,0.54-3.1,1.41-4.24,2.49l108.31,213.19h-94.84l-94.84-185.5
			c-6.74,1.15-13.4,1.95-20.14,2.56c-6.74,0.54-14.01,0.81-21.82,0.81h-109.93v182.13h-89.79v-616.86h199.71
			c25.19,0,48.77,3.23,70.93,9.7c22.09,6.47,42.37,15.22,60.82,26.4c45.33,28.56,75.78,68.57,91.47,120.03
			c0.54,2.83,1.15,5.32,1.68,7.54c0.54,2.22,1.42,4.78,2.49,7.54v4.18c1.15,2.83,1.82,5.93,2.15,9.23c0.27,3.37,0.67,6.74,1.21,10.1
			v0.88c0.54,3.3,0.88,6.67,0.88,10.04v10.91v0.81v1.68v10.1c0,3.3-0.34,6.67-0.88,10.04v1.68c-0.54,3.37-0.94,6.6-1.21,9.7
			c-0.33,3.03-1.01,6.26-2.15,9.63v3.3C4364.81,2032.57,4363.4,2037.89,4362.86,2042.34 M4150.55,2118.72
			c18.46,0,35.36-3.91,50.79-11.79c15.36-7.88,28.63-18.25,39.87-31.12c11.18-12.93,20.14-27.62,26.81-44.19
			c6.74-16.57,10.1-33.81,10.1-51.8c0-17.38-3.37-34.49-10.1-51.33c-6.67-16.84-15.63-31.59-26.81-44.19
			c-11.25-12.66-24.52-22.9-39.87-30.78c-15.42-7.81-32.33-11.72-50.79-11.72h-120.03v276.91H4150.55z"/>
		<polygon class="st0" points="4592.81,2289.09 4866.42,2289.09 4866.42,2377.19 4503.83,2377.19 4503.83,1764.58 4860.49,1764.58 
			4860.49,1851.06 4592.81,1851.06 4592.81,1947.99 4592.81,1998.11 4592.81,2059.13 4833.68,2059.13 4833.68,2143.06 
			4592.81,2143.06 		"/>
		<path class="st1" d="M2879.31,701.82c16.03,0,31.72-6.47,43.04-17.85c11.32-11.32,17.85-27.01,17.85-42.97
			c0-16.03-6.53-31.73-17.85-43.04c-11.32-11.32-27.01-17.85-43.04-17.85c-16.03,0-31.73,6.53-43.04,17.85
			c-11.32,11.32-17.78,27.01-17.78,43.04c0,15.96,6.47,31.66,17.78,42.97C2847.59,695.35,2863.28,701.82,2879.31,701.82"/>
		<path class="st1" d="M2663.42,581.54c-33.61,0-60.89,27.28-60.89,60.89s27.28,60.82,60.89,60.82c33.61,0,60.82-27.21,60.82-60.82
			S2697.03,581.54,2663.42,581.54"/>
		<path class="st1" d="M2447.5,580.1c-16.03,0-31.73,6.53-43.04,17.85c-11.32,11.32-17.78,27.01-17.78,43.04
			c0,16.03,6.47,31.73,17.78,42.97c11.32,11.38,27.01,17.85,43.04,17.85c16.03,0,31.72-6.47,43.04-17.85
			c11.32-11.25,17.85-26.94,17.85-42.97c0-16.03-6.53-31.73-17.85-43.04C2479.23,586.63,2463.53,580.1,2447.5,580.1"/>
		<path class="st1" d="M2196.82,149.74c-33.61,0-60.82,27.28-60.82,60.89s27.21,60.82,60.82,60.82c33.68,0,60.89-27.21,60.89-60.82
			S2230.5,149.74,2196.82,149.74"/>
		<path class="st1" d="M1946.17,148.29c-16.03,0-31.73,6.53-43.04,17.85c-11.32,11.32-17.85,27.01-17.85,43.04
			c0,16.03,6.53,31.73,17.85,42.97c11.32,11.38,27.01,17.85,43.04,17.85c16.03,0,31.72-6.47,43.04-17.85
			c11.32-11.25,17.78-26.94,17.78-42.97c0-16.03-6.47-31.73-17.78-43.04C1977.9,154.82,1962.2,148.29,1946.17,148.29"/>
		<path class="st1" d="M1944.73,485.93c33.61,0,60.82-27.28,60.82-60.89s-27.21-60.82-60.82-60.82c-33.68,0-60.89,27.21-60.89,60.82
			S1911.05,485.93,1944.73,485.93"/>
		<path class="st1" d="M1946.17,580.1c-16.03,0-31.73,6.53-43.04,17.85c-11.32,11.32-17.85,27.01-17.85,43.04
			c0,16.03,6.53,31.73,17.85,42.97c11.32,11.38,27.01,17.85,43.04,17.85c16.03,0,31.72-6.47,43.04-17.85
			c11.32-11.25,17.78-26.94,17.78-42.97c0-16.03-6.47-31.73-17.78-43.04C1977.9,586.63,1962.2,580.1,1946.17,580.1"/>
		<path class="st1" d="M1730.25,581.54c-33.61,0-60.82,27.28-60.82,60.89s27.21,60.82,60.82,60.82c33.61,0,60.82-27.21,60.82-60.82
			S1763.86,581.54,1730.25,581.54"/>
		<path class="st1" d="M1517.26,580.1c-16.03,0-31.73,6.53-43.04,17.85c-11.32,11.32-17.85,27.01-17.85,43.04
			c0,16.03,6.53,31.73,17.85,42.97c11.32,11.38,27.01,17.85,43.04,17.85c16.03,0,31.72-6.47,43.04-17.85
			c11.32-11.25,17.78-26.94,17.78-42.97c0-16.03-6.47-31.73-17.78-43.04C1548.99,586.63,1533.29,580.1,1517.26,580.1"/>
		<path class="st1" d="M1517.26,1078.56c-16.03,0-31.73,6.47-43.04,17.85c-11.32,11.32-17.85,27.01-17.85,42.97
			c0,16.1,6.53,31.73,17.85,43.04c11.32,11.32,27.01,17.85,43.04,17.85c16.03,0,31.72-6.53,43.04-17.85
			c11.32-11.32,17.78-26.94,17.78-43.04c0-15.96-6.47-31.66-17.78-42.97C1548.99,1085.03,1533.29,1078.56,1517.26,1078.56"/>
		<path class="st1" d="M1730.25,1080.01c-33.61,0-60.82,27.21-60.82,60.89c0,33.61,27.21,60.82,60.82,60.82
			c33.61,0,60.82-27.21,60.82-60.82C1791.08,1107.22,1763.86,1080.01,1730.25,1080.01"/>
		<path class="st1" d="M1946.17,1078.56c-16.03,0-31.73,6.47-43.04,17.85c-11.32,11.32-17.85,27.01-17.85,42.97
			c0,16.1,6.53,31.73,17.85,43.04c11.32,11.32,27.01,17.85,43.04,17.85c16.03,0,31.72-6.53,43.04-17.85
			c11.32-11.32,17.78-26.94,17.78-43.04c0-15.96-6.47-31.66-17.78-42.97C1977.9,1085.03,1962.2,1078.56,1946.17,1078.56"/>
		<path class="st1" d="M1944.73,1416.17c33.61,0,60.82-27.21,60.82-60.82c0-33.61-27.21-60.89-60.82-60.89
			c-33.68,0-60.89,27.28-60.89,60.89C1883.83,1388.96,1911.05,1416.17,1944.73,1416.17"/>
		<path class="st1" d="M1946.17,1510.37c-16.03,0-31.73,6.47-43.04,17.85c-11.32,11.32-17.85,27.01-17.85,42.97
			c0,16.1,6.53,31.73,17.85,43.04c11.32,11.32,27.01,17.85,43.04,17.85c16.03,0,31.72-6.53,43.04-17.85
			c11.32-11.32,17.78-26.94,17.78-43.04c0-15.96-6.47-31.66-17.78-42.97C1977.9,1516.84,1962.2,1510.37,1946.17,1510.37"/>
		<path class="st1" d="M2196.82,1511.82c-33.61,0-60.82,27.21-60.82,60.89c0,33.61,27.21,60.82,60.82,60.82
			c33.68,0,60.89-27.21,60.89-60.82C2257.71,1539.03,2230.5,1511.82,2196.82,1511.82"/>
		<path class="st1" d="M2447.5,1078.56c-16.03,0-31.73,6.47-43.04,17.85c-11.32,11.32-17.78,27.01-17.78,42.97
			c0,16.1,6.47,31.73,17.78,43.04c11.32,11.32,27.01,17.85,43.04,17.85c16.03,0,31.72-6.53,43.04-17.85
			c11.32-11.32,17.85-26.94,17.85-43.04c0-15.96-6.53-31.66-17.85-42.97C2479.23,1085.03,2463.53,1078.56,2447.5,1078.56"/>
		<path class="st1" d="M2663.42,1080.01c-33.61,0-60.89,27.21-60.89,60.89c0,33.61,27.28,60.82,60.89,60.82
			c33.61,0,60.82-27.21,60.82-60.82C2724.25,1107.22,2697.03,1080.01,2663.42,1080.01"/>
		<path class="st1" d="M2879.31,1078.56c-16.03,0-31.73,6.47-43.04,17.85c-11.32,11.32-17.78,27.01-17.78,42.97
			c0,16.1,6.47,31.73,17.78,43.04c11.32,11.32,27.01,17.85,43.04,17.85c16.03,0,31.72-6.53,43.04-17.85
			c11.32-11.32,17.85-26.94,17.85-43.04c0-15.96-6.53-31.66-17.85-42.97C2911.04,1085.03,2895.34,1078.56,2879.31,1078.56"/>
		<path class="st1" d="M2877.86,952.5c33.61,0,60.89-27.21,60.89-60.82c0-33.61-27.28-60.89-60.89-60.89
			c-33.61,0-60.82,27.28-60.82,60.89C2817.04,925.29,2844.25,952.5,2877.86,952.5"/>
		<path class="st1" d="M2430.93,484.09c45.33,10.91,85.07-28.83,74.16-74.16c-5.12-21.29-22.56-38.8-43.92-43.92
			c-45.33-10.91-85,28.9-74.16,74.16C2392.13,461.53,2409.64,478.97,2430.93,484.09"/>
		<path class="st1" d="M2447.5,148.29c-16.03,0-31.73,6.53-43.04,17.85c-11.32,11.32-17.78,27.01-17.78,43.04
			c0,16.03,6.47,31.73,17.78,42.97c11.32,11.38,27.01,17.85,43.04,17.85c16.03,0,31.72-6.47,43.04-17.85
			c11.32-11.25,17.85-26.94,17.85-42.97c0-16.03-6.53-31.73-17.85-43.04C2479.23,154.82,2463.53,148.29,2447.5,148.29"/>
		<path class="st1" d="M2447.5,1510.37c-16.03,0-31.73,6.47-43.04,17.85c-11.32,11.32-17.78,27.01-17.78,42.97
			c0,16.1,6.47,31.73,17.78,43.04c11.32,11.32,27.01,17.85,43.04,17.85c16.03,0,31.72-6.53,43.04-17.85
			c11.32-11.32,17.85-26.94,17.85-43.04c0-15.96-6.53-31.66-17.85-42.97C2479.23,1516.84,2463.53,1510.37,2447.5,1510.37"/>
		<path class="st1" d="M2446.06,1416.17c33.61,0,60.89-27.21,60.89-60.82c0-33.61-27.28-60.89-60.89-60.89
			c-33.61,0-60.82,27.28-60.82,60.89C2385.23,1388.96,2412.44,1416.17,2446.06,1416.17"/>
		<path class="st2" d="M3093.78,687.34c-12.19,0-24.18-4.98-32.81-13.61c-8.62-8.62-13.54-20.54-13.54-32.74
			c0-12.26,4.92-24.18,13.54-32.8c8.62-8.69,20.61-13.61,32.81-13.61c12.19,0,24.11,4.92,32.8,13.61
			c8.62,8.62,13.54,20.54,13.54,32.8c0,12.19-4.92,24.11-13.54,32.74C3117.9,682.36,3105.97,687.34,3093.78,687.34"/>
		<path class="st2" d="M3093.78,1185.78c-12.19,0-24.18-4.92-32.81-13.61c-8.62-8.62-13.54-20.54-13.54-32.74
			c0-12.26,4.92-24.18,13.54-32.8c8.62-8.62,20.61-13.54,32.81-13.54c12.19,0,24.11,4.92,32.8,13.54
			c8.62,8.62,13.54,20.54,13.54,32.8c0,12.19-4.92,24.11-13.54,32.74C3117.9,1180.87,3105.97,1185.78,3093.78,1185.78"/>
		<path class="st2" d="M3092.34,938.03c-25.6,0-46.34-20.81-46.34-46.34c0-25.6,20.75-46.41,46.34-46.41
			c25.53,0,46.34,20.81,46.34,46.41C3138.68,917.21,3117.86,938.03,3092.34,938.03"/>
		<path class="st2" d="M2660.53,471.43c-25.6,0-46.34-20.81-46.34-46.34c0-25.6,20.75-46.41,46.34-46.41
			c25.53,0,46.34,20.81,46.34,46.41C2706.87,450.62,2686.06,471.43,2660.53,471.43"/>
		<path class="st2" d="M2661.98,255.54c-12.19,0-24.18-4.98-32.8-13.61c-8.62-8.62-13.54-20.54-13.54-32.74
			c0-12.26,4.92-24.18,13.54-32.8c8.62-8.69,20.61-13.61,32.8-13.61c12.19,0,24.11,4.92,32.8,13.61
			c8.62,8.62,13.54,20.54,13.54,32.8c0,12.19-4.92,24.11-13.54,32.74C2686.09,250.56,2674.17,255.54,2661.98,255.54"/>
		<path class="st2" d="M2661.98,1617.59c-12.19,0-24.18-4.92-32.8-13.61c-8.62-8.62-13.54-20.54-13.54-32.74
			c0-12.26,4.92-24.18,13.54-32.8c8.62-8.62,20.61-13.54,32.8-13.54c12.19,0,24.11,4.92,32.8,13.54
			c8.62,8.62,13.54,20.54,13.54,32.8c0,12.19-4.92,24.11-13.54,32.74C2686.09,1612.67,2674.17,1617.59,2661.98,1617.59"/>
		<path class="st2" d="M2660.53,1401.7c-25.6,0-46.34-20.81-46.34-46.34c0-25.6,20.75-46.41,46.34-46.41
			c25.53,0,46.34,20.81,46.34,46.41C2706.87,1380.89,2686.06,1401.7,2660.53,1401.7"/>
		<path class="st3" d="M3311.11,672.84c-8.42,0-16.64-3.37-22.5-9.36c-5.93-5.93-9.36-14.15-9.36-22.5c0-8.42,3.43-16.64,9.36-22.56
			c5.86-5.93,14.08-9.3,22.5-9.3s16.64,3.37,22.56,9.3c5.93,5.93,9.36,14.14,9.36,22.56c0,8.35-3.44,16.57-9.36,22.5
			C3327.75,669.47,3319.53,672.84,3311.11,672.84"/>
		<path class="st3" d="M3311.11,1171.31c-8.42,0-16.64-3.44-22.5-9.36c-5.93-5.93-9.36-14.15-9.36-22.56
			c0-8.35,3.43-16.57,9.36-22.5c5.86-5.93,14.08-9.36,22.5-9.36s16.64,3.44,22.56,9.36c5.93,5.93,9.36,14.15,9.36,22.5
			c0,8.42-3.44,16.64-9.36,22.56C3327.75,1167.88,3319.53,1171.31,3311.11,1171.31"/>
		<path class="st3" d="M3309.66,923.53c-17.58,0-31.86-14.28-31.86-31.86c0-17.58,14.28-31.93,31.86-31.93
			c17.58,0,31.93,14.35,31.93,31.93C3341.59,909.25,3327.24,923.53,3309.66,923.53"/>
		<path class="st3" d="M2877.86,456.95c-17.58,0-31.86-14.28-31.86-31.93c0-17.51,14.28-31.86,31.86-31.86
			c17.58,0,31.93,14.35,31.93,31.86C2909.79,442.67,2895.44,456.95,2877.86,456.95"/>
		<path class="st3" d="M2879.31,241.04c-8.42,0-16.64-3.37-22.5-9.36c-5.93-5.93-9.36-14.15-9.36-22.5c0-8.42,3.44-16.64,9.36-22.56
			c5.86-5.93,14.08-9.3,22.5-9.3s16.64,3.37,22.56,9.3c5.93,5.93,9.36,14.15,9.36,22.56c0,8.35-3.44,16.57-9.36,22.5
			C2895.95,237.67,2887.73,241.04,2879.31,241.04"/>
		<path class="st3" d="M2879.31,1603.12c-8.42,0-16.64-3.44-22.5-9.36c-5.93-5.93-9.36-14.15-9.36-22.56
			c0-8.35,3.44-16.57,9.36-22.5c5.86-5.93,14.08-9.36,22.5-9.36s16.64,3.44,22.56,9.36c5.93,5.93,9.36,14.15,9.36,22.5
			c0,8.42-3.44,16.64-9.36,22.56C2895.95,1599.68,2887.73,1603.12,2879.31,1603.12"/>
		<path class="st3" d="M2877.86,1387.2c-17.58,0-31.86-14.28-31.86-31.86c0-17.58,14.28-31.86,31.86-31.86
			c17.58,0,31.93,14.28,31.93,31.86C2909.79,1372.92,2895.44,1387.2,2877.86,1387.2"/>
		<path class="st4" d="M3528.48,658.34c-4.58,0-9.09-1.82-12.33-5.05c-3.17-3.3-5.05-7.75-5.05-12.33c0-4.58,1.89-9.09,5.05-12.26
			c3.23-3.3,7.75-5.12,12.33-5.12c4.58,0,9.02,1.89,12.33,5.12c3.17,3.17,5.05,7.68,5.05,12.26c0,4.58-1.89,9.03-5.05,12.33
			C3537.51,656.52,3533.06,658.34,3528.48,658.34"/>
		<path class="st4" d="M3528.48,1156.81c-4.58,0-9.09-1.82-12.33-5.12c-3.17-3.23-5.05-7.68-5.05-12.26c0-4.58,1.89-9.09,5.05-12.33
			c3.23-3.23,7.75-5.05,12.33-5.05c4.58,0,9.02,1.82,12.33,5.12c3.17,3.17,5.05,7.68,5.05,12.26c0,4.58-1.89,9.03-5.05,12.26
			C3537.51,1154.99,3533.06,1156.81,3528.48,1156.81"/>
		<path class="st4" d="M3527.03,909.02c-9.63,0-17.38-7.81-17.38-17.38c0-9.56,7.75-17.38,17.38-17.38
			c9.56,0,17.38,7.81,17.38,17.38C3544.41,901.21,3536.6,909.02,3527.03,909.02"/>
		<path class="st4" d="M3095.23,442.45c-9.63,0-17.38-7.81-17.38-17.38c0-9.56,7.75-17.38,17.38-17.38
			c9.56,0,17.38,7.81,17.38,17.38C3112.6,434.64,3104.79,442.45,3095.23,442.45"/>
		<path class="st4" d="M3096.67,226.53c-4.58,0-9.09-1.82-12.33-5.05c-3.17-3.3-5.05-7.75-5.05-12.33c0-4.58,1.89-9.09,5.05-12.26
			c3.23-3.3,7.75-5.12,12.33-5.12c4.58,0,9.02,1.89,12.33,5.12c3.17,3.17,5.05,7.68,5.05,12.26c0,4.58-1.89,9.03-5.05,12.33
			C3105.7,224.71,3101.25,226.53,3096.67,226.53"/>
		<path class="st4" d="M3096.67,1588.61c-4.58,0-9.09-1.82-12.33-5.12c-3.17-3.23-5.05-7.68-5.05-12.26c0-4.58,1.89-9.09,5.05-12.33
			c3.23-3.23,7.75-5.05,12.33-5.05c4.58,0,9.02,1.82,12.33,5.12c3.17,3.17,5.05,7.68,5.05,12.26c0,4.58-1.89,9.03-5.05,12.26
			C3105.7,1586.79,3101.25,1588.61,3096.67,1588.61"/>
		<path class="st4" d="M3095.23,1372.73c-9.63,0-17.38-7.81-17.38-17.38c0-9.63,7.75-17.45,17.38-17.45
			c9.56,0,17.38,7.81,17.38,17.45C3112.6,1364.91,3104.79,1372.73,3095.23,1372.73"/>
	</g>
	<g>
		<path class="st1" d="M746.45,2685.87c-13.94,0-26.87-3.53-38.77-10.57c-11.91-7.05-21.31-16.56-28.2-28.55
			c-6.9-11.98-10.34-25.02-10.34-39.12c0-14.1,3.44-27.1,10.34-39c6.89-11.9,16.29-21.38,28.2-28.43
			c11.9-7.05,24.82-10.57,38.77-10.57c10.81,0,21.19,2.23,31.13,6.7c9.95,4.46,18.68,10.77,26.2,18.91l-8.22,7.29
			c-6.27-7.05-13.67-12.53-22.21-16.45c-8.54-3.91-17.51-5.87-26.91-5.87c-12.06,0-23.18,3.02-33.37,9.05
			c-10.18,6.03-18.29,14.21-24.32,24.56c-6.03,10.34-9.05,21.62-9.05,33.83s3.01,23.5,9.05,33.83
			c6.03,10.34,14.13,18.53,24.32,24.56c10.18,6.03,21.3,9.05,33.37,9.05c10.03,0,19.54-2.19,28.55-6.58
			c9.01-4.39,16.72-10.49,23.14-18.33l8.46,6.58c-7.36,9.25-16.29,16.41-26.79,21.5C769.32,2683.32,758.2,2685.87,746.45,2685.87z"
			/>
		<path class="st1" d="M840.9,2684.22V2531.5h10.57v142.15h85.76v10.57H840.9z"/>
		<path class="st1" d="M999.51,2494.84h19.27l-26.32,23.5h-12.22L999.51,2494.84z M980.71,2684.22V2531.5h10.81v152.73H980.71z"/>
		<path class="st1" d="M1050.96,2560.16v124.06h-10.58v-154.61l105.74,126.41V2531.5h10.57v155.31L1050.96,2560.16z"/>
		<path class="st1" d="M1204.62,2684.22V2531.5h10.57v152.73H1204.62z"/>
		<path class="st1" d="M1330.8,2685.87c-13.94,0-26.87-3.53-38.77-10.57c-11.91-7.05-21.31-16.56-28.2-28.55
			c-6.9-11.98-10.34-25.02-10.34-39.12c0-14.1,3.44-27.1,10.34-39c6.89-11.9,16.29-21.38,28.2-28.43
			c11.9-7.05,24.82-10.57,38.77-10.57c10.81,0,21.19,2.23,31.13,6.7c9.95,4.46,18.68,10.77,26.2,18.91l-8.22,7.29
			c-6.27-7.05-13.67-12.53-22.21-16.45c-8.54-3.91-17.51-5.87-26.91-5.87c-12.06,0-23.18,3.02-33.37,9.05
			c-10.18,6.03-18.29,14.21-24.32,24.56c-6.03,10.34-9.05,21.62-9.05,33.83s3.01,23.5,9.05,33.83
			c6.03,10.34,14.13,18.53,24.32,24.56c10.18,6.03,21.3,9.05,33.37,9.05c10.03,0,19.54-2.19,28.55-6.58
			c9.01-4.39,16.72-10.49,23.14-18.33l8.46,6.58c-7.36,9.25-16.29,16.41-26.79,21.5C1353.67,2683.32,1342.55,2685.87,1330.8,2685.87
			z"/>
		<path class="st1" d="M1443.12,2645.45l-18.09,38.77h-11.75l71.9-154.61l67.9,154.61h-11.51l-17.15-38.77H1443.12z M1484.71,2555.7
			l-36.65,79.18h71.66L1484.71,2555.7z"/>
		<path class="st1" d="M1708.16,2684.22h-43.94V2531.5h43.94c10.81,0,20.83,2,30.07,5.99c9.24,3.99,17.23,9.67,23.97,17.03
			c6.42,7.05,11.36,15.12,14.8,24.2c3.44,9.09,5.17,18.72,5.17,28.9c0,10.18-1.72,19.82-5.17,28.9c-3.45,9.09-8.38,17.23-14.8,24.44
			c-6.74,7.52-14.72,13.27-23.97,17.27S1718.96,2684.22,1708.16,2684.22z M1674.79,2673.65h33.37c18.95,0,34.38-6.66,46.29-19.97
			c5.48-5.95,9.67-12.88,12.57-20.79c2.9-7.91,4.35-16.33,4.35-25.26c0-8.77-1.45-17.11-4.35-25.02
			c-2.9-7.91-7.09-14.84-12.57-20.79c-12.07-13-27.49-19.5-46.29-19.5h-33.37V2673.65z"/>
		<path class="st1" d="M1817.65,2684.22V2531.5h98.92v10.81h-88.35v60.15h68.85v10.81h-68.85v59.92h88.35v11.04H1817.65z"/>
		<path class="st1" d="M2136.38,2625.13c3.99,5.87,5.99,12.18,5.99,18.91c0,5.8-1.41,11.32-4.23,16.56
			c-2.82,5.25-6.89,9.83-12.22,13.75c-10.97,7.83-23.73,11.75-38.3,11.75c-7.21,0-14.1-1.02-20.68-3.05
			c-6.58-2.04-12.45-4.94-17.62-8.7c-8.93-6.58-14.33-14.64-16.21-24.2l10.1-5.64c0.47,8.62,4.7,15.67,12.69,21.15
			c4.07,3.13,8.85,5.52,14.33,7.16c5.48,1.65,11.28,2.47,17.39,2.47c12.53,0,23.1-3.21,31.72-9.63c8.3-6.11,12.45-13.31,12.45-21.62
			c0-4.85-1.53-9.4-4.58-13.63s-7.33-7.83-12.81-10.81c-5.17-2.66-14.42-4.78-27.73-6.34c-1.1-0.15-5.05-0.78-11.86-1.88
			c-6.81-1.09-12.65-2.82-17.51-5.17c-7.68-3.76-13.71-8.73-18.09-14.92c-4.39-6.19-6.58-12.88-6.58-20.09
			c0-5.79,1.45-11.24,4.35-16.33c2.9-5.09,7.01-9.59,12.34-13.51c5.17-3.76,11.04-6.66,17.62-8.7c6.58-2.04,13.47-3.05,20.68-3.05
			c14.57,0,27.33,3.92,38.3,11.75c9.08,6.89,14.41,14.88,15.97,23.97l-10.1,5.64c-0.16-3.92-1.29-7.68-3.41-11.28
			c-2.11-3.6-5.13-6.89-9.05-9.87c-4.23-3.13-9.09-5.52-14.57-7.16c-5.48-1.65-11.2-2.47-17.15-2.47c-5.96,0-11.71,0.82-17.27,2.47
			c-5.56,1.65-10.38,4.03-14.45,7.16c-4.07,2.98-7.21,6.31-9.4,9.99c-2.19,3.68-3.29,7.48-3.29,11.4c0,4.86,1.8,9.68,5.4,14.45
			c3.6,4.78,8.07,8.5,13.39,11.16c3.29,1.57,6.93,2.7,10.92,3.41c4,0.7,9.12,1.45,15.39,2.23c1.09,0.16,3.84,0.55,8.22,1.17
			c4.39,0.63,8.61,1.49,12.69,2.59c4.07,1.1,7.52,2.43,10.34,4C2126.78,2614.28,2132.38,2619.26,2136.38,2625.13z"/>
		<path class="st1" d="M2182.07,2684.22V2531.5h98.92v10.81h-88.35v60.15h68.84v10.81h-68.84v59.92h88.35v11.04H2182.07z"/>
		<path class="st1" d="M2411.4,2684.22l-63.44-77.07h18.8c11.59,0,20.99-1.49,28.19-4.46c5.33-2.5,9.95-6.31,13.86-11.4
			c3.91-5.09,5.87-10.69,5.87-16.8c0-5.48-1.65-10.69-4.93-15.63c-3.29-4.93-7.99-8.96-14.1-12.1c-6.11-3.13-13.16-4.7-21.15-4.7
			h-42.76v142.15h-10.57V2531.5h53.34c7.2,0,13.94,1.14,20.21,3.41c6.26,2.27,11.75,5.52,16.45,9.75c4.54,4.08,8.03,8.7,10.46,13.86
			s3.64,10.49,3.64,15.98c0,8.62-2.58,16.33-7.75,23.14c-5.17,6.81-11.28,11.71-18.33,14.69c-4.86,2.2-9.6,3.57-14.21,4.11
			c-4.62,0.55-9.52,0.82-14.69,0.82l55.22,66.97H2411.4z"/>
		<path class="st1" d="M2525.36,2660.49l57.8-128.99h11.75l-69.55,155.31l-69.32-155.31h11.51L2525.36,2660.49z"/>
		<path class="st1" d="M2630.86,2684.22V2531.5h10.57v152.73H2630.86z"/>
		<path class="st1" d="M2757.03,2685.87c-13.94,0-26.87-3.53-38.77-10.57c-11.91-7.05-21.31-16.56-28.2-28.55
			c-6.9-11.98-10.34-25.02-10.34-39.12c0-14.1,3.44-27.1,10.34-39c6.89-11.9,16.29-21.38,28.2-28.43
			c11.9-7.05,24.82-10.57,38.77-10.57c10.81,0,21.19,2.23,31.13,6.7c9.95,4.46,18.68,10.77,26.2,18.91l-8.22,7.29
			c-6.27-7.05-13.67-12.53-22.21-16.45c-8.54-3.91-17.51-5.87-26.91-5.87c-12.06,0-23.18,3.02-33.37,9.05
			c-10.18,6.03-18.29,14.21-24.32,24.56c-6.03,10.34-9.05,21.62-9.05,33.83s3.01,23.5,9.05,33.83
			c6.03,10.34,14.13,18.53,24.32,24.56c10.18,6.03,21.3,9.05,33.37,9.05c10.03,0,19.54-2.19,28.55-6.58
			c9.01-4.39,16.72-10.49,23.14-18.33l8.46,6.58c-7.36,9.25-16.29,16.41-26.79,21.5C2779.9,2683.32,2768.78,2685.87,2757.03,2685.87
			z"/>
		<path class="st1" d="M2854.3,2684.22V2531.5h10.57v152.73H2854.3z"/>
		<path class="st1" d="M2980.48,2685.87c-13.94,0-26.87-3.48-38.77-10.46c-11.91-6.97-21.31-16.45-28.2-28.43
			c-6.9-11.98-10.34-25.02-10.34-39.12c0-14.1,3.44-27.14,10.34-39.12c6.89-11.98,16.29-21.46,28.2-28.43
			c11.9-6.97,24.82-10.46,38.77-10.46s26.87,3.49,38.77,10.46c11.9,6.97,21.3,16.45,28.2,28.43c6.89,11.99,10.34,25.02,10.34,39.12
			c0,14.1-3.44,27.14-10.34,39.12c-6.9,11.98-16.29,21.47-28.2,28.43C3007.34,2682.38,2994.42,2685.87,2980.48,2685.87z
			 M2980.48,2540.66c-12.06,0-23.18,3.02-33.37,9.05c-10.18,6.03-18.29,14.18-24.32,24.43c-6.03,10.26-9.05,21.5-9.05,33.72
			s3.01,23.46,9.05,33.72c6.03,10.26,14.13,18.41,24.32,24.44c10.18,6.03,21.3,9.05,33.37,9.05c12.06,0,23.18-3.02,33.37-9.05
			c10.18-6.03,18.25-14.18,24.2-24.44c5.95-10.25,8.93-21.5,8.93-33.72s-2.98-23.46-8.93-33.72c-5.95-10.25-14.02-18.4-24.2-24.43
			C3003.66,2543.67,2992.54,2540.66,2980.48,2540.66z"/>
		<path class="st1" d="M3192.06,2625.13c3.99,5.87,5.99,12.18,5.99,18.91c0,5.8-1.41,11.32-4.23,16.56
			c-2.82,5.25-6.89,9.83-12.22,13.75c-10.97,7.83-23.73,11.75-38.3,11.75c-7.21,0-14.1-1.02-20.68-3.05
			c-6.58-2.04-12.45-4.94-17.62-8.7c-8.93-6.58-14.33-14.64-16.21-24.2l10.1-5.64c0.47,8.62,4.7,15.67,12.69,21.15
			c4.07,3.13,8.85,5.52,14.33,7.16c5.48,1.65,11.28,2.47,17.39,2.47c12.53,0,23.1-3.21,31.72-9.63c8.3-6.11,12.45-13.31,12.45-21.62
			c0-4.85-1.53-9.4-4.58-13.63s-7.33-7.83-12.81-10.81c-5.17-2.66-14.42-4.78-27.73-6.34c-1.1-0.15-5.05-0.78-11.86-1.88
			c-6.81-1.09-12.65-2.82-17.51-5.17c-7.68-3.76-13.71-8.73-18.09-14.92c-4.39-6.19-6.58-12.88-6.58-20.09
			c0-5.79,1.45-11.24,4.35-16.33c2.9-5.09,7.01-9.59,12.34-13.51c5.17-3.76,11.04-6.66,17.62-8.7c6.58-2.04,13.47-3.05,20.68-3.05
			c14.57,0,27.33,3.92,38.3,11.75c9.08,6.89,14.41,14.88,15.97,23.97l-10.1,5.64c-0.16-3.92-1.29-7.68-3.41-11.28
			c-2.11-3.6-5.13-6.89-9.05-9.87c-4.23-3.13-9.09-5.52-14.57-7.16c-5.48-1.65-11.2-2.47-17.15-2.47c-5.96,0-11.71,0.82-17.27,2.47
			c-5.56,1.65-10.38,4.03-14.45,7.16c-4.07,2.98-7.21,6.31-9.4,9.99c-2.19,3.68-3.29,7.48-3.29,11.4c0,4.86,1.8,9.68,5.4,14.45
			c3.6,4.78,8.07,8.5,13.39,11.16c3.29,1.57,6.93,2.7,10.92,3.41c4,0.7,9.12,1.45,15.39,2.23c1.09,0.16,3.84,0.55,8.22,1.17
			c4.39,0.63,8.61,1.49,12.69,2.59c4.07,1.1,7.52,2.43,10.34,4C3182.47,2614.28,3188.07,2619.26,3192.06,2625.13z"/>
		<path class="st1" d="M3462.86,2684.22v-120.78l-67.67,96.57l-68.61-96.81v121.01H3316v-154.61l79.19,111.84l78.25-111.84v154.61
			H3462.86z"/>
		<path class="st1" d="M3518.78,2684.22V2531.5h98.92v10.81h-88.35v60.15h68.85v10.81h-68.85v59.92h88.35v11.04H3518.78z
			 M3574.7,2492.02h19.27l-26.32,23.73h-12.22L3574.7,2492.02z"/>
		<path class="st1" d="M3701.81,2684.22h-43.94V2531.5h43.94c10.81,0,20.83,2,30.07,5.99c9.24,3.99,17.23,9.67,23.97,17.03
			c6.42,7.05,11.36,15.12,14.8,24.2c3.44,9.09,5.17,18.72,5.17,28.9c0,10.18-1.72,19.82-5.17,28.9c-3.45,9.09-8.38,17.23-14.8,24.44
			c-6.74,7.52-14.72,13.27-23.97,17.27C3722.65,2682.23,3712.62,2684.22,3701.81,2684.22z M3668.45,2673.65h33.37
			c18.95,0,34.38-6.66,46.29-19.97c5.48-5.95,9.67-12.88,12.57-20.79c2.9-7.91,4.35-16.33,4.35-25.26c0-8.77-1.45-17.11-4.35-25.02
			c-2.9-7.91-7.09-14.84-12.57-20.79c-12.07-13-27.49-19.5-46.29-19.5h-33.37V2673.65z"/>
		<path class="st1" d="M3814.12,2684.22V2531.5h10.57v152.73H3814.12z"/>
		<path class="st1" d="M3940.3,2685.87c-13.94,0-26.87-3.53-38.77-10.57c-11.91-7.05-21.31-16.56-28.2-28.55
			c-6.9-11.98-10.34-25.02-10.34-39.12c0-14.1,3.44-27.1,10.34-39c6.89-11.9,16.29-21.38,28.2-28.43
			c11.9-7.05,24.82-10.57,38.77-10.57c10.81,0,21.19,2.23,31.13,6.7c9.95,4.46,18.68,10.77,26.2,18.91l-8.22,7.29
			c-6.27-7.05-13.67-12.53-22.21-16.45c-8.54-3.91-17.51-5.87-26.91-5.87c-12.06,0-23.18,3.02-33.37,9.05
			c-10.18,6.03-18.29,14.21-24.32,24.56c-6.03,10.34-9.05,21.62-9.05,33.83s3.01,23.5,9.05,33.83
			c6.03,10.34,14.13,18.53,24.32,24.56c10.18,6.03,21.3,9.05,33.37,9.05c10.03,0,19.54-2.19,28.55-6.58
			c9.01-4.39,16.72-10.49,23.14-18.33l8.46,6.58c-7.36,9.25-16.29,16.41-26.79,21.5C3963.17,2683.32,3952.05,2685.87,3940.3,2685.87
			z"/>
		<path class="st1" d="M4103.6,2685.87c-13.94,0-26.87-3.48-38.77-10.46c-11.91-6.97-21.31-16.45-28.2-28.43
			c-6.9-11.98-10.34-25.02-10.34-39.12c0-14.1,3.44-27.14,10.34-39.12c6.89-11.98,16.29-21.46,28.2-28.43
			c11.9-6.97,24.82-10.46,38.77-10.46c13.94,0,26.87,3.49,38.77,10.46c11.9,6.97,21.3,16.45,28.2,28.43
			c6.89,11.99,10.34,25.02,10.34,39.12c0,14.1-3.44,27.14-10.34,39.12c-6.9,11.98-16.29,21.47-28.2,28.43
			C4130.46,2682.38,4117.54,2685.87,4103.6,2685.87z M4103.6,2540.66c-12.06,0-23.18,3.02-33.37,9.05
			c-10.18,6.03-18.29,14.18-24.32,24.43c-6.03,10.26-9.05,21.5-9.05,33.72s3.01,23.46,9.05,33.72
			c6.03,10.26,14.13,18.41,24.32,24.44c10.18,6.03,21.3,9.05,33.37,9.05c12.06,0,23.18-3.02,33.37-9.05
			c10.18-6.03,18.25-14.18,24.2-24.44c5.95-10.25,8.93-21.5,8.93-33.72s-2.98-23.46-8.93-33.72c-5.95-10.25-14.02-18.4-24.2-24.43
			C4126.78,2543.67,4115.66,2540.66,4103.6,2540.66z"/>
		<path class="st1" d="M4315.18,2625.13c3.99,5.87,5.99,12.18,5.99,18.91c0,5.8-1.41,11.32-4.23,16.56
			c-2.82,5.25-6.89,9.83-12.22,13.75c-10.97,7.83-23.73,11.75-38.3,11.75c-7.21,0-14.1-1.02-20.68-3.05
			c-6.58-2.04-12.45-4.94-17.62-8.7c-8.93-6.58-14.33-14.64-16.21-24.2l10.1-5.64c0.47,8.62,4.7,15.67,12.69,21.15
			c4.07,3.13,8.85,5.52,14.33,7.16c5.48,1.65,11.28,2.47,17.39,2.47c12.53,0,23.1-3.21,31.72-9.63c8.3-6.11,12.46-13.31,12.46-21.62
			c0-4.85-1.53-9.4-4.58-13.63s-7.33-7.83-12.81-10.81c-5.17-2.66-14.41-4.78-27.73-6.34c-1.1-0.15-5.05-0.78-11.86-1.88
			c-6.81-1.09-12.65-2.82-17.51-5.17c-7.68-3.76-13.71-8.73-18.09-14.92c-4.39-6.19-6.58-12.88-6.58-20.09
			c0-5.79,1.45-11.24,4.35-16.33c2.9-5.09,7.01-9.59,12.34-13.51c5.17-3.76,11.04-6.66,17.62-8.7c6.58-2.04,13.47-3.05,20.68-3.05
			c14.57,0,27.33,3.92,38.3,11.75c9.08,6.89,14.41,14.88,15.97,23.97l-10.1,5.64c-0.16-3.92-1.29-7.68-3.41-11.28
			c-2.11-3.6-5.13-6.89-9.05-9.87c-4.23-3.13-9.08-5.52-14.57-7.16c-5.48-1.65-11.2-2.47-17.15-2.47c-5.96,0-11.71,0.82-17.27,2.47
			c-5.56,1.65-10.38,4.03-14.45,7.16c-4.07,2.98-7.21,6.31-9.4,9.99c-2.19,3.68-3.29,7.48-3.29,11.4c0,4.86,1.8,9.68,5.4,14.45
			c3.6,4.78,8.07,8.5,13.39,11.16c3.29,1.57,6.93,2.7,10.92,3.41c4,0.7,9.12,1.45,15.39,2.23c1.09,0.16,3.84,0.55,8.22,1.17
			c4.39,0.63,8.61,1.49,12.69,2.59c4.07,1.1,7.52,2.43,10.34,4C4305.59,2614.28,4311.19,2619.26,4315.18,2625.13z"/>
	</g>
</g>
</svg>
